<?xml version="1.0" encoding="utf-8"?>
<!-- Generator: Adobe Illustrator 18.1.1, SVG Export Plug-In . SVG Version: 6.00 Build 0)  -->
<svg version="1.1" id="Ebene_2" xmlns="http://www.w3.org/2000/svg" xmlns:xlink="http://www.w3.org/1999/xlink" x="0px" y="0px"
	 viewBox="0 0 516.7 462.6" enable-background="new 0 0 516.7 462.6" xml:space="preserve">
<circle opacity="0.74" fill="#CEDFAD" cx="327.2" cy="221.7" r="18.2"/>
<circle opacity="0.74" fill="#CEDFAD" cx="222.2" cy="155.7" r="18.2"/>
<circle opacity="0.74" fill="#CEDFAD" cx="375.6" cy="208.5" r="18.2"/>
<circle opacity="0.74" fill="#CEDFAD" cx="445.3" cy="194" r="18.2"/>
<circle opacity="0.74" fill="#CEDFAD" cx="417" cy="251.8" r="18.2"/>
<circle opacity="0.74" fill="#CEDFAD" cx="430.9" cy="274.4" r="18.2"/>
<circle opacity="0.74" fill="#7D758A" cx="413.3" cy="190.2" r="18.2"/>
<circle opacity="0.74" fill="#7D758A" cx="429" cy="222.9" r="18.2"/>
<circle opacity="0.74" fill="#917673" cx="455.4" cy="217.9" r="18.2"/>
<circle opacity="0.74" fill="#917673" cx="453.5" cy="253.1" r="18.2"/>
<circle opacity="0.74" fill="#917673" cx="399.4" cy="226.7" r="18.2"/>
<circle opacity="0.74" fill="#7D758A" cx="389.4" cy="261.3" r="18.2"/>
<circle opacity="0.74" fill="#917673" cx="200.2" cy="40.7" r="18.2"/>
<circle opacity="0.74" fill="#7D758A" cx="278.2" cy="211" r="18.2"/>
<circle opacity="0.74" fill="#7D758A" cx="38.7" cy="102.3" r="18.2"/>
<g opacity="0.74">
	<path fill="#44432F" d="M486.9,440.6c0,0-0.7-0.3-2-1c-1.3-0.6-3.2-1.6-5.6-2.9c-2.4-1.3-5.2-2.9-8.4-5c-3.2-2-6.7-4.4-10.4-7.2
		c-3.7-2.8-7.6-6-11.5-9.6c-3.9-3.6-7.9-7.7-11.6-12.1c-1-1.1-1.9-2.3-2.8-3.4c-0.5-0.6-0.9-1.2-1.4-1.7c-0.4-0.6-0.9-1.2-1.4-1.8
		c-0.9-1.2-1.8-2.4-2.7-3.6c-0.9-1.3-1.7-2.5-2.6-3.8c-3.4-5.1-6.5-10.6-9.2-16.2c-2.8-5.6-5.2-11.4-7.2-17.2
		c-2.1-5.8-3.7-11.7-4.9-17.4c-1.2-5.7-2-11.4-2.5-16.7c-0.2-2.7-0.4-5.3-0.5-7.8c-0.1-2.5-0.1-5-0.1-7.3c0-4.7,0.3-8.9,0.7-12.7
		c0.4-3.8,0.8-7,1.3-9.7c0.5-2.7,0.9-4.8,1.2-6.2c0.3-1.4,0.5-2.2,0.5-2.2l0.5,0.1c0,0,0,0.8-0.1,2.2c-0.1,1.4-0.2,3.6-0.3,6.2
		c-0.1,2.7-0.2,5.9-0.2,9.7c0,3.7,0.1,7.9,0.4,12.5c0.1,2.3,0.3,4.7,0.6,7.1c0.2,2.4,0.5,5,0.8,7.6c0.7,5.2,1.6,10.6,2.7,16.2
		c1.1,5.6,2.5,11.3,4.3,17c1.7,5.7,3.9,11.4,6.4,16.9c2.5,5.5,5.4,10.9,8.5,16c0.8,1.3,1.6,2.5,2.4,3.7c0.8,1.2,1.7,2.5,2.5,3.7
		c0.4,0.6,0.8,1.2,1.3,1.8c0.4,0.6,0.9,1.2,1.3,1.7c0.9,1.1,1.7,2.3,2.6,3.4c3.5,4.5,7.3,8.5,11,12.3c3.7,3.7,7.4,7.1,11,9.9
		c3.6,2.9,6.9,5.4,10,7.5c3.1,2.1,5.8,3.9,8.1,5.3c2.3,1.4,4.1,2.4,5.4,3.1c1.3,0.7,1.9,1.1,1.9,1.1L486.9,440.6z"/>
</g>
</svg>
